# xmcd CD database file generated by OrangeCD 6.4
#
# Track frame offsets:
#	150
#	21360
#	34002
#	54342
#	66405
#	89210
#	105155
#	133640
#	147937
#	167850
#	180277
#
# Disc length: 2732 seconds
#
# Revision: 0
# Processed by: cddbd v1.5.2PL0 Copyright (c) Steve Scherf et al.
# Submitted via: OrangeCD 6.4
#
DISCID=940aaa0b
DTITLE=Mr. Keith Little - A Mother's Love
DYEAR=2001
DGENRE=
TTITLE0=Further On Down The Road
TTITLE1=Bull Of The Woods
TTITLE2=A Mother's Love
TTITLE3=That's My Daddy
TTITLE4=Fried Chicken Blues
TTITLE5=Can't Thumb A Ride
TTITLE6=I'll Rise About It All
TTITLE7=I Think You Lost Me
TTITLE8=Bring It On
TTITLE9=Cincinnati Slim
TTITLE10=Red, Green, and Blue
EXTD=
EXTT0=
EXTT1=
EXTT2=
EXTT3=
EXTT4=
EXTT5=
EXTT6=
EXTT7=
EXTT8=
EXTT9=
EXTT10=
PLAYORDER=
